<svg width="33" height="33" viewBox="0 0 33 33" fill="none" xmlns="http://www.w3.org/2000/svg">
<path fill-rule="evenodd" clip-rule="evenodd" d="M19.1386 19.0914L17.1293 19.0742L17.125 21.0878H19.1407L19.1386 19.0914Z" fill="#57EE9F"/>
<path fill-rule="evenodd" clip-rule="evenodd" d="M17.125 18.6368H19.1407L19.1386 16.6405L17.1293 16.6211L17.125 18.6368Z" fill="#57EE9F"/>
<path fill-rule="evenodd" clip-rule="evenodd" d="M16.7167 18.6368V16.6211L14.7053 16.6232L14.7031 18.6174L16.7167 18.6368Z" fill="#57EE9F"/>
<path fill-rule="evenodd" clip-rule="evenodd" d="M16.7167 19.0742L14.7053 19.0764L14.7031 21.0706L16.7188 21.0899L16.7167 19.0742Z" fill="#57EE9F"/>
<path fill-rule="evenodd" clip-rule="evenodd" d="M14.936 11.4596C15.3104 11.1025 16.855 9.52138 17.0421 9.43963L18.2511 10.6809C18.6663 11.0875 19.0514 11.4704 19.4687 11.877L24.3542 16.7194C24.7629 17.1282 25.1566 17.5175 25.5718 17.9177C25.8536 18.1866 26.5656 18.8707 26.7808 19.1482L24.9329 19.1546L24.9178 23.3108C21.4027 23.2979 18.0683 24.0014 15.3211 25.3588C14.6714 25.6793 14.0239 26.0558 13.4754 26.4301C12.2642 27.2562 11.8877 27.6348 10.9111 28.6222L10.3991 29.1945C9.86773 29.8269 9.33422 30.7326 9.22881 30.8767C9.30196 31.3973 9.49772 31.7265 9.97744 32.1223C10.0205 32.1589 10.0743 32.1933 10.1345 32.2277C10.3926 31.7006 11.464 30.554 11.9523 30.0958C12.1889 29.8721 12.3782 29.672 12.6385 29.4505C14.6069 27.7617 16.8463 26.4688 19.4278 25.6083C20.5078 25.2469 22.6418 24.7005 23.7669 24.636V24.6812C23.939 24.3111 24.2337 23.9928 24.5779 23.8121L24.6855 23.7583C25.2491 23.5044 25.6729 23.5776 26.357 23.5776C27.7015 23.5776 29.046 23.5776 30.3927 23.5776C30.9111 23.5776 31.2166 23.5819 31.578 23.4076L31.8878 23.2248C31.9244 23.1968 31.9588 23.1796 31.9911 23.1516C32.232 22.9473 32.4471 22.6784 32.5547 22.375C32.6085 22.2201 32.6795 22.0158 32.6795 21.8179V10.8121C32.6795 10.4486 32.5224 10.1022 32.3331 9.81825C32.2664 9.71714 32.1029 9.54504 32.0126 9.46975C31.8792 9.36219 31.7609 9.28044 31.5931 9.203C31.4317 9.1277 31.2855 9.07823 31.0811 9.04596C30.7606 8.99218 26.7765 9.02014 26.357 9.02014C25.5546 9.02014 24.7995 9.1234 24.1756 8.49309C23.5023 7.81545 23.6034 7.23462 23.6034 6.35476V2.28892C23.6034 1.51662 23.569 1.22621 23.1731 0.692699C23.0226 0.490482 22.8203 0.354954 22.6138 0.230183C22.4224 0.114016 22.0631 0 21.8243 0H10.9713C10.7411 0 10.3797 0.111864 10.1904 0.22588C10.0463 0.309778 9.91291 0.393677 9.79459 0.514146C9.61173 0.699153 9.48266 0.854042 9.36864 1.10789C9.203 1.4779 9.19439 1.75971 9.19439 2.28892V7.03885C9.19439 7.58096 9.08253 7.97034 8.73618 8.37477C8.46728 8.6867 8.12523 8.87816 7.72295 8.97712C7.3895 9.05671 6.81943 9.02014 6.41069 9.02014H2.33194C1.76832 9.02014 1.53383 9.01154 1.1251 9.18579C0.828227 9.31271 0.552868 9.54074 0.370013 9.78383C0.185007 10.0291 0 10.4615 0 10.782V21.8179C0 22.1578 0.176402 22.5364 0.359257 22.7967C0.542112 23.0634 0.813168 23.2699 1.10143 23.4076C1.46284 23.5819 1.77047 23.5776 2.28677 23.5776H6.33755C7.02164 23.5776 7.60678 23.4937 8.15965 23.7819C8.19407 23.8013 8.22634 23.8142 8.26506 23.8357L8.47373 23.9777C8.92119 24.3284 9.19439 24.8468 9.19439 25.4448V30.1948C9.19439 30.4207 9.20085 30.6164 9.21806 30.7907V19.189L7.07758 19.2278C7.13136 19.1095 7.15287 19.1073 7.24967 19.0169L10.4593 15.8847C10.6056 15.6653 10.384 12.5611 10.5196 11.9501H12.858L12.8666 13.4711C13.157 13.2473 14.0519 12.3115 14.4219 11.9544C14.6026 11.7823 14.7575 11.6339 14.936 11.4596Z" fill="#57EE9F"/>
<path fill-rule="evenodd" clip-rule="evenodd" d="M21.6498 28.3316C18.055 28.2907 14.172 29.0909 11.298 31.24C11.0571 31.4207 10.3127 32.0252 10.1406 32.2296C10.3859 32.3716 10.7344 32.4813 10.9753 32.4813H21.8283C22.0112 32.4813 22.2435 32.4146 22.3812 32.363C22.5339 32.3071 22.6888 32.2232 22.8157 32.1285C23.005 31.9887 23.1836 31.8123 23.3062 31.6122C23.4912 31.3132 23.6095 30.9432 23.6074 30.5732V28.4456C22.9491 28.4047 22.3295 28.3402 21.6498 28.3316Z" fill="#57EE9F"/>
</svg>
